<svg width="37" height="31" fill="none" xmlns="http://www.w3.org/2000/svg"><path d="M2.234 17.287l6.977-4.021 6.977 4.02v8.039l-6.977 4.02-6.977-4.02v-8.038z" stroke="#000" stroke-width="2"/><path d="M9.211 23.685a2.38 2.38 0 100-4.758 2.38 2.38 0 00-2.381 2.379 2.38 2.38 0 002.381 2.379z" stroke="#000" stroke-width="2"/><path fill-rule="evenodd" clip-rule="evenodd" d="M21.737.998a9.862 9.862 0 00-8.284 4.475 7.755 7.755 0 00-1.294-.108c-3.268 0-6.068 2.036-7.152 4.908h2.198a5.64 5.64 0 014.954-2.908c.527 0 1.036.071 1.518.204a1 1 0 001.144-.487 7.856 7.856 0 016.916-4.084c3.907 0 7.134 2.813 7.74 6.479a1 1 0 00.87.83c2.068.244 3.655 1.98 3.655 4.065 0 2.25-1.85 4.095-4.158 4.095h-9.58v2h9.58c3.39 0 6.158-2.717 6.158-6.095 0-2.875-2.007-5.272-4.694-5.921-1.04-4.283-4.937-7.453-9.57-7.453z" fill="#000"/></svg>