<svg width="32" height="15" fill="none" xmlns="http://www.w3.org/2000/svg"><path d="M5.52 1.09H3.638L.928 2.834v1.81l2.551-1.63h.064V12h1.976V1.09zm3.854 9.418H7.669l-.037.597c-.09 1.444-.469 2.914-.623 3.558h1.3c.255-.67.846-2.226.995-3.569l.07-.585zM10.912 12h7.479v-1.651H13.64v-.075l1.88-1.912c2.12-2.035 2.706-3.026 2.706-4.256 0-1.827-1.486-3.164-3.68-3.164-2.163 0-3.698 1.342-3.698 3.414h1.88c0-1.113.704-1.81 1.79-1.81 1.04 0 1.812.633 1.812 1.661 0 .91-.554 1.56-1.63 2.653l-3.788 3.712V12zm11.002-1.492h-1.705l-.037.597c-.09 1.444-.469 2.914-.623 3.558h1.3c.255-.67.846-2.226.996-3.569l.069-.585zM27 12.15c2.334 0 4.033-1.337 4.027-3.18.006-1.364-.846-2.344-2.375-2.562v-.085c1.182-.256 1.976-1.135 1.97-2.36.006-1.662-1.41-3.02-3.59-3.02-2.12 0-3.76 1.262-3.803 3.09h1.902c.032-.917.884-1.487 1.89-1.487 1.018 0 1.695.618 1.69 1.534.005.954-.784 1.588-1.913 1.588h-.964V7.19h.964c1.38 0 2.2.692 2.195 1.678.005.964-.831 1.624-1.998 1.624-1.097 0-1.944-.57-1.992-1.459h-2.003c.053 1.843 1.7 3.116 4 3.116z" fill="#000"/></svg>