<svg width="22" height="30" fill="none" xmlns="http://www.w3.org/2000/svg"><circle cx="11" cy="13" r="3" stroke="#000" stroke-width="2"/><path fill-rule="evenodd" clip-rule="evenodd" d="M2 7.978l9-5.171 9 5.17v10.025h2V6.82L11 .5 0 6.82v12.64l10.3 5.918v-2.306L2 18.303V7.978z" fill="#000"/><path d="M13 30v-3.938h3.938l-1.81 1.812c.624.638 1.479.999 2.372 1.001a3.375 3.375 0 003.177-2.25h.01a3.41 3.41 0 00.146-.563h1.132A4.5 4.5 0 0117.5 30h-.006a4.467 4.467 0 01-3.18-1.316L13 30zm1.167-5.063h-1.132A4.5 4.5 0 0117.497 21h.003a4.466 4.466 0 013.18 1.316L22 21v3.938h-3.938l1.813-1.812c-.625-.639-1.481-1-2.375-1.001a3.375 3.375 0 00-3.177 2.25h-.01a3.309 3.309 0 00-.146.563z" fill="#000"/></svg>