<svg width="26" height="26" fill="none" xmlns="http://www.w3.org/2000/svg"><path stroke="#000" stroke-width="2" d="M7.067 7.067h11.867v11.867H7.067z"/><path fill-rule="evenodd" clip-rule="evenodd" d="M19.5 2H24v4.5h2V0h-6.5v2zm-13 0V0H0v6.5h2V2h4.5zM2 19.5H0V26h6.5v-2H2v-4.5zM19.5 24v2H26v-6.5h-2V24h-4.5z" fill="#000"/><path fill-rule="evenodd" clip-rule="evenodd" d="M1.226 26H0v-1.226l6.067-6.067v1.226h1.225L1.226 26zM26 24.774V26h-1.226l-6.066-6.067h1.226v-1.225L26 24.775zM1.225 0l6.067 6.067H6.067v1.226L0 1.226V0h1.225zm23.55 0H26v1.226l-6.066 6.066V6.067h-1.226L24.774 0z" fill="#000"/></svg>